<?xml version="1.0" encoding="UTF-8"?>
<svg id="_图层_1" data-name="图层 1" xmlns="http://www.w3.org/2000/svg" xmlns:xlink="http://www.w3.org/1999/xlink" viewBox="0 0 55.12 50.24">
  <defs>
    <linearGradient id="_未命名的渐变_7" data-name="未命名的渐变 7" x1="0" y1="20.77" x2="32.72" y2="20.77" gradientUnits="userSpaceOnUse">
      <stop offset="0" stop-color="#00a99d"/>
      <stop offset="1" stop-color="#29abe2"/>
    </linearGradient>
    <linearGradient id="_未命名的渐变_11" data-name="未命名的渐变 11" x1="11.34" y1="28.44" x2="43.87" y2="28.44" gradientUnits="userSpaceOnUse">
      <stop offset=".01" stop-color="#2e3192"/>
      <stop offset="1" stop-color="aqua"/>
    </linearGradient>
    <linearGradient id="_未命名的渐变_18" data-name="未命名的渐变 18" x1="25.51" y1="36.05" x2="47.86" y2="36.05" gradientUnits="userSpaceOnUse">
      <stop offset="0" stop-color="#245ca9"/>
      <stop offset="1" stop-color="#04a9a3"/>
    </linearGradient>
    <linearGradient id="_未命名的渐变_22" data-name="未命名的渐变 22" x1="40.59" y1="42.98" x2="55.12" y2="42.98" gradientUnits="userSpaceOnUse">
      <stop offset="0" stop-color="#29abe2"/>
      <stop offset="1" stop-color="#09d6e9"/>
    </linearGradient>
  </defs>
  <path d="M32.69.66c-.52-.99-3.4-.62-4.78-.44C12.69,2.29.76,15.18.02,30.44c-.04,3.38-.18,8.4,1.83,10.99,1.23.67,2.21-2.04,2.79-3.2C10.21,24.91,19.01,13.13,30.03,4.05c.98-.9,2.84-2.26,2.68-3.33l-.02-.06Z" fill="url(#_未命名的渐变_7)"/>
  <path d="M43.85,8.57c-1.29-1.55-5.5-.34-7.57.08-16.43,3.87-27.69,21.04-24.36,37.59.53,2.4,1.49,4.09,3.21,1.63,6.1-12.75,13.76-25.05,24.64-34.22,1.34-1.36,4.2-3.23,4.09-5.02l-.02-.06Z" fill="url(#_未命名的渐变_11)"/>
  <path d="M47.83,22.48c-1.36-1.5-5.08.11-6.98.74-8.3,3.19-14.36,11.08-15.2,19.95-.22,1.83-.54,9.36,2.62,6.39,1.25-1.35,2.4-3.6,3.39-5.35,3.04-5.58,6.87-10.73,11.34-15.23,1.5-1.78,4.95-4.21,4.87-6.44l-.03-.06Z" fill="url(#_未命名的渐变_18)"/>
  <circle cx="47.86" cy="42.98" r="7.27" fill="url(#_未命名的渐变_22)"/>
</svg>
